<?xml version="1.0" encoding="iso-8859-1"?>
<!-- Uploaded to: SVG Repo, www.svgrepo.com, Generator: SVG Repo Mixer Tools -->
<!DOCTYPE svg PUBLIC "-//W3C//DTD SVG 1.1//EN" "http://www.w3.org/Graphics/SVG/1.1/DTD/svg11.dtd">
<svg fill="#000000" version="1.1" id="Capa_1" xmlns="http://www.w3.org/2000/svg" xmlns:xlink="http://www.w3.org/1999/xlink" 
	 width="800px" height="800px" viewBox="0 0 481.488 481.488"
	 xml:space="preserve">
<g>
	<g>
		<path d="M476.908,212.372c2.897-2.629,4.921-5.273,4.532-5.903c-0.393-0.629-3.903-1.12-7.814-1.12h-20.843
			c-3.903,0-5.178-2.537-2.829-5.668l5.751-7.67c2.353-3.124,1.503-7.268-2.096-8.809c-7.507-3.204-15.762-4.999-24.438-4.999
			l-44.467,6.209l37.053-27.974l0.605-0.533c6.54-6.541,11.613-14.21,15.063-22.789c1.335-3.32,1.103-6.957-0.637-9.97
			c-1.8-3.124-4.998-5.228-8.748-5.769l-4.838-0.701l11.418-11.411c6.769-6.776,6.801-9.647,6.308-11.76
			c-1.259-5.616-8.071-5.616-11.345-5.616c-0.662,0-1.359,0.02-2.057,0.05l-35.057,1.663l-0.064,5.889l-0.513-6.472l1.659-35.043
			c0.288-5.919-0.141-12.143-5.538-13.409l-1.395-0.156c-1.175,0-3.947,0-10.396,6.46l-11.413,11.399l-0.701-4.827
			c-1.062-7.474-8.853-12.163-15.729-9.375c-8.588,3.446-16.246,8.51-22.778,15.05l-28.524,37.73l6.215-44.526
			c0-8.682-1.783-16.936-4.997-24.441c-1.543-3.595-5.683-4.442-8.808-2.092l-7.675,5.752c-3.13,2.347-5.675,1.074-5.675-2.831
			V7.863c0-3.909-0.488-7.416-1.117-7.811c-0.63-0.393-3.274,1.639-5.903,4.53l-23.612,25.962c-2.629,2.893-6.9,2.893-9.529,0
			L212.36,4.583c-2.629-2.899-5.274-4.923-5.903-4.53c-0.627,0.395-1.122,3.901-1.122,7.811V28.71c0,3.905-2.535,5.178-5.667,2.831
			l-7.67-5.752c-3.124-2.351-7.271-1.503-8.808,2.092c-3.204,7.506-5.001,15.767-5.001,24.441l6.202,44.456l-27.956-37.039
			l-0.533-0.611c-6.54-6.539-14.21-11.606-22.788-15.048c-6.915-2.767-14.657,1.906-15.731,9.38l-0.701,4.833L105.277,46.89
			c-6.464-6.47-9.123-6.47-10.397-6.47l-1.428,0.165c-5.352,1.258-5.785,7.474-5.508,13.393l1.663,35.051l5.881-0.279l-6.464,0.854
			l-35.057-1.663c-0.699-0.03-1.393-0.05-2.052-0.05c-3.258,0-10.039,0-11.349,5.592c-0.487,2.166-0.449,5.038,6.312,11.784
			l11.397,11.419l-4.835,0.693c-3.751,0.533-6.941,2.637-8.746,5.761c-1.733,3.006-1.962,6.645-0.629,9.971
			c3.446,8.58,8.51,16.25,15.05,22.788l37.722,28.515l-44.519-6.218c-8.682,0-16.936,1.788-24.441,5
			c-3.595,1.541-4.442,5.685-2.092,8.808l5.752,7.67c2.347,3.124,1.074,5.67-2.835,5.67H7.859c-3.909,0-7.416,0.491-7.811,1.118
			c-0.391,0.629,1.639,3.274,4.53,5.903l25.962,23.618c2.894,2.629,2.894,6.896,0,9.529L4.579,269.123
			c-2.897,2.629-4.921,5.274-4.53,5.903c0.395,0.629,3.901,1.118,7.811,1.118h20.843c3.909,0,5.182,2.537,2.835,5.675l-5.752,7.666
			c-2.351,3.126-1.503,7.266,2.092,8.808c7.506,3.206,15.767,4.998,24.441,4.998l44.464-6.208l-37.055,27.972l-0.613,0.537
			c-6.54,6.532-11.604,14.198-15.05,22.778c-1.333,3.326-1.104,6.969,0.637,9.982c1.805,3.118,4.995,5.226,8.746,5.751l4.835,0.697
			l-11.397,11.405c-6.769,6.757-6.807,9.638-6.306,11.838c1.304,5.558,8.055,5.558,11.297,5.558c0.675,0,1.384-0.023,2.09-0.06
			l35.065-1.659l0.066-5.887l0.501,6.464l-1.663,35.057c-0.285,5.951,0.164,12.19,5.516,13.385l1.422,0.169
			c1.28,0,3.925,0,10.396-6.452l11.419-11.409l0.693,4.837c1.074,7.474,8.816,12.122,15.731,9.369
			c8.578-3.442,16.248-8.516,22.788-15.056l28.515-37.718l-6.217,44.526c0,8.684,1.787,16.932,4.999,24.438
			c1.541,3.599,5.685,4.448,8.808,2.096l7.67-5.751c3.124-2.348,5.67-1.082,5.67,2.829v20.843c0,3.911,0.493,7.422,1.118,7.814
			c0.629,0.389,3.274-1.643,5.903-4.532l23.618-25.96c2.628-2.897,6.897-2.897,9.53,0l23.611,25.96
			c2.629,2.897,5.274,4.921,5.903,4.532c0.629-0.393,1.118-3.903,1.118-7.814v-20.843c0-3.911,2.536-5.177,5.674-2.829l7.667,5.751
			c3.125,2.353,7.265,1.503,8.808-2.096c3.206-7.506,4.997-15.762,4.997-24.438l-6.207-44.467l27.979,37.062l0.537,0.604
			c6.532,6.536,14.198,11.613,22.778,15.064c6.913,2.745,14.667-1.912,15.729-9.378l0.705-4.837l11.409,11.409
			c6.432,6.432,9.093,6.452,10.379,6.452h0.008l1.375-0.152c5.458-1.219,5.839-7.811,5.566-13.4l-1.659-35.058l0.577-0.577
			l35.041,1.659c0.721,0.036,1.435,0.061,2.107,0.061c3.267,0,10.051,0,11.293-5.559c0.51-2.172,0.493-5.054-6.291-11.83
			l-11.401-11.421l4.821-0.693c3.759-0.521,6.94-2.629,8.748-5.746c1.739-3.014,1.972-6.657,0.637-9.983
			c-3.45-8.588-8.523-16.246-15.063-22.778l-37.726-28.524l44.534,6.216c8.684,0,16.931-1.783,24.438-4.998
			c3.599-1.542,4.448-5.674,2.096-8.808l-5.751-7.666c-2.349-3.138-1.074-5.675,2.829-5.675h20.843c3.911,0,7.422-0.489,7.814-1.118
			c0.389-0.629-1.643-3.274-4.532-5.903l-25.96-23.611c-2.897-2.633-2.897-6.9,0-9.529L476.908,212.372z M240.749,265.176
			c-1.43,0-2.764,0.112-4.12,0.213c-0.81-1.371-1.713-2.705-2.671-4.031c-1.569-2.638-3.547-5.238-6.069-7.743
			c-2.527-2.532-5.131-4.508-7.776-6.087c-1.312-0.945-2.645-1.804-4-2.593c0.096-1.37,0.222-2.729,0.222-4.176
			c0-1.406-0.118-2.717-0.214-4.052c1.502-0.894,2.985-1.887,4.438-2.973c2.497-1.537,4.953-3.453,7.33-5.841
			c2.522-2.519,4.5-5.109,6.069-7.754c0.958-1.318,1.854-2.653,2.671-4.021c1.356,0.096,2.69,0.214,4.12,0.214
			c1.428,0,2.763-0.118,4.121-0.214c0.813,1.369,1.715,2.703,2.677,4.029c1.571,2.637,3.547,5.236,6.071,7.747
			c2.377,2.38,4.821,4.298,7.313,5.834c1.455,1.084,2.941,2.078,4.452,2.979c-0.1,1.335-0.212,2.646-0.212,4.044
			c0,1.446,0.112,2.805,0.221,4.176c-1.363,0.797-2.705,1.663-4.024,2.616c-2.645,1.579-5.245,3.555-7.758,6.08
			c-2.517,2.504-4.492,5.089-6.063,7.726c-0.962,1.327-1.871,2.669-2.677,4.04C243.512,265.288,242.177,265.176,240.749,265.176z
			 M334.208,67.175c5.342-5.278,11.573-9.37,18.254-12.061l1.354,9.492c0.854,5.983,5.005,8.666,8.74,8.666
			c1.795,0,4.5-0.581,7.253-3.326l11.754-11.752l-1.435,30.262c-0.16,3.455,1.018,6.705,3.351,9.147
			c2.32,2.44,5.382,3.867,9.545,3.759l30.28-1.437l-11.766,11.76c-2.945,2.952-4.004,6.548-2.894,9.853
			c1.106,3.312,4.104,5.55,8.252,6.147l9.598,1.044c-2.789,6.971-6.894,13.22-12.167,18.562l-53.596,40.465l-6.672,0.934
			l18.839-14.225c4.568-4.568,7.979-9.862,10.243-15.504c1.078-2.703-0.653-5.332-3.535-5.747l-7.077-1.016
			c-2.881-0.407-3.55-2.415-1.486-4.472l10.969-10.975c2.056-2.056,3.643-4.167,3.526-4.705c-0.112-0.533-2.581-0.862-5.494-0.719
			l-26.104,1.238c-2.914,0.14-5.153-2.11-5.014-5.016l1.242-26.104c0.137-2.912-0.192-5.37-0.721-5.492
			c-0.537-0.126-2.653,1.46-4.709,3.514l-10.969,10.975c-2.063,2.06-4.063,1.393-4.48-1.491l-1.01-7.071
			c-0.408-2.883-3.037-4.617-5.75-3.535c-5.643,2.269-10.925,5.669-15.501,10.239l-14.23,18.839l0.946-6.742L334.208,67.175z
			 M67.171,147.292c-5.278-5.342-9.367-11.583-12.059-18.25l9.498-1.356c4.135-0.589,7.137-2.835,8.241-6.147
			c1.1-3.304,0.042-6.901-2.91-9.853L58.19,99.926l30.899,1.453c3.438,0,6.608-1.334,8.922-3.769
			c2.325-2.44,3.521-5.685,3.354-9.145L99.93,58.187l11.76,11.752c2.757,2.753,5.462,3.328,7.253,3.328
			c3.737,0,7.88-2.677,8.746-8.668l1.042-9.61c6.973,2.804,13.222,6.893,18.568,12.171l40.461,53.593l0.934,6.672l-14.224-18.839
			c-4.568-4.57-9.862-7.979-15.505-10.239c-2.703-1.082-5.332,0.651-5.747,3.535l-1.012,7.071c-0.411,2.883-2.418,3.55-4.477,1.491
			l-10.976-10.975c-2.054-2.054-4.166-3.641-4.703-3.514c-0.533,0.122-0.861,2.581-0.719,5.492l1.241,26.104
			c0.138,2.914-2.112,5.156-5.018,5.016l-26.104-1.238c-2.911-0.143-5.37,0.187-5.492,0.719c-0.126,0.537,1.461,2.649,3.522,4.705
			l10.975,10.975c2.058,2.058,1.393,4.065-1.491,4.472l-7.073,1.016c-2.881,0.406-4.615,3.035-3.533,5.747
			c2.269,5.642,5.669,10.928,10.237,15.504l18.841,14.225l-6.75-0.942L67.171,147.292z M147.293,414.332
			c-5.348,5.274-11.589,9.37-18.254,12.059l-1.359-9.497c-0.857-5.995-5.009-8.673-8.746-8.673c-1.791,0-4.496,0.577-7.253,3.326
			l-11.76,11.762l1.439-30.283c0.164-3.447-1.032-6.705-3.354-9.138c-2.3-2.42-5.448-3.755-9.478-3.755c-0.022,0-0.044,0-0.06,0
			l-30.278,1.431l11.744-11.741c2.951-2.954,4.017-6.54,2.917-9.862c-1.104-3.311-4.106-5.551-8.241-6.14l-9.618-1.042
			c2.803-6.985,6.893-13.225,12.171-18.562l53.599-40.467l6.667-0.93l-18.839,14.23c-4.571,4.568-7.979,9.858-10.239,15.501
			c-1.082,2.705,0.651,5.334,3.535,5.75l7.071,1.01c2.884,0.409,3.551,2.417,1.491,4.477L99.473,344.76
			c-2.054,2.056-3.641,4.172-3.522,4.709c0.116,0.528,2.581,0.857,5.494,0.717l26.103-1.242c2.913-0.137,5.155,2.112,5.019,5.018
			l-1.242,26.1c-0.142,2.914,0.188,5.379,0.719,5.499c0.537,0.124,2.649-1.463,4.705-3.527l10.974-10.968
			c2.058-2.064,4.06-1.398,4.476,1.486l1.012,7.073c0.407,2.886,3.036,4.616,5.747,3.534c5.643-2.268,10.928-5.67,15.505-10.238
			l14.224-18.839l-0.942,6.748L147.293,414.332z M414.328,334.212c5.273,5.342,9.361,11.573,12.051,18.254l-9.481,1.354
			c-4.141,0.589-7.146,2.829-8.252,6.14c-1.11,3.313-0.052,6.9,2.897,9.854l11.762,11.758l-30.909-1.455
			c-3.442,0-6.601,1.343-8.916,3.771c-2.333,2.445-3.511,5.69-3.351,9.134l1.435,30.271l-11.754-11.754
			c-2.753-2.749-5.458-3.326-7.253-3.326c-3.739,0-7.887,2.686-8.74,8.672l-1.05,9.606c-6.985-2.789-13.225-6.893-18.559-12.167
			l-40.472-53.604l-0.93-6.664l14.23,18.839c4.568,4.568,9.858,7.979,15.501,10.243c2.705,1.078,5.334-0.653,5.751-3.534l1.01-7.077
			c0.408-2.882,2.416-3.551,4.48-1.487l10.968,10.969c2.056,2.056,4.172,3.643,4.709,3.526c0.529-0.12,0.857-2.581,0.721-5.494
			l-1.242-26.104c-0.14-2.913,2.108-5.161,5.014-5.013l26.104,1.242c2.913,0.136,5.374-0.192,5.494-0.729
			c0.124-0.529-1.463-2.646-3.526-4.701l-10.969-10.968c-2.063-2.064-1.395-4.064,1.487-4.48l7.077-1.01
			c2.881-0.409,4.612-3.038,3.534-5.751c-2.272-5.643-5.675-10.924-10.243-15.501l-18.839-14.23l6.74,0.946L414.328,334.212z"/>
	</g>
</g>
</svg>