<?xml version="1.0" encoding="iso-8859-1"?>
<!-- Uploaded to: SVG Repo, www.svgrepo.com, Generator: SVG Repo Mixer Tools -->
<svg fill="#000000" height="800px" width="800px" version="1.1" id="Layer_1" xmlns="http://www.w3.org/2000/svg" xmlns:xlink="http://www.w3.org/1999/xlink" 
	 viewBox="0 0 511.998 511.998" xml:space="preserve">
<g>
	<g>
		<path d="M507.133,282.109l-32.316-20.018l16.166-30.908c1.905-3.643,1.458-8.07-1.137-11.257
			c-2.596-3.187-6.841-4.523-10.793-3.395l-140.15,39.978l127.371-70.833c3.592-1.998,5.649-5.942,5.231-10.032
			c-0.418-4.089-3.233-7.536-7.156-8.764l-33.286-10.424l8.695-37.006c0.814-3.465-0.221-7.104-2.738-9.621
			c-2.517-2.516-6.155-3.552-9.622-2.738l-37.005,8.696l-10.424-33.286c-1.228-3.922-4.675-6.737-8.764-7.156
			c-4.092-0.423-8.035,1.639-10.032,5.231l-70.834,127.372l39.978-140.151c1.128-3.953-0.208-8.198-3.395-10.793
			c-3.188-2.595-7.613-3.042-11.257-1.137l-30.908,16.167l-20.018-32.317c-1.874-3.026-5.181-4.867-8.74-4.867
			c-3.559,0-6.866,1.841-8.74,4.867l-20.018,32.317l-30.908-16.167c-3.643-1.904-8.07-1.458-11.257,1.137
			c-3.187,2.595-4.522,6.84-3.395,10.793l39.98,140.151L150.828,80.578c-1.998-3.591-5.949-5.653-10.032-5.231
			c-4.09,0.418-7.536,3.233-8.764,7.156l-10.424,33.286l-37.005-8.696c-3.466-0.816-7.105,0.222-9.622,2.738
			c-2.517,2.517-3.552,6.156-2.738,9.621l8.695,37.006l-33.286,10.424c-3.922,1.228-6.737,4.675-7.156,8.764
			c-0.418,4.09,1.639,8.034,5.231,10.032l127.371,70.833l-140.15-39.978c-3.956-1.129-8.197,0.208-10.793,3.395
			c-2.595,3.188-3.042,7.614-1.137,11.257l16.166,30.908L4.867,282.109C1.841,283.985,0,287.29,0,290.849s1.841,6.866,4.867,8.74
			l32.316,20.018l-16.166,30.908c-1.905,3.643-1.458,8.07,1.137,11.257c1.984,2.436,4.93,3.791,7.974,3.79
			c0.939,0,1.888-0.128,2.819-0.395l168.132-47.96v19.521c0,26.769,19.254,49.112,44.639,53.94v76.199
			c0,5.677,4.603,10.281,10.281,10.281c5.678,0,10.281-4.604,10.281-10.281v-76.199c25.384-4.829,44.639-27.172,44.639-53.94
			v-19.521l168.132,47.96c0.932,0.266,1.88,0.395,2.819,0.395c3.043,0,5.99-1.353,7.974-3.79c2.595-3.187,3.042-7.614,1.137-11.257
			l-16.166-30.908l32.316-20.018c3.026-1.874,4.867-5.181,4.867-8.74C512,287.29,510.159,283.985,507.133,282.109z M367.502,111.502
			l6.123,19.555c1.61,5.143,6.917,8.168,12.164,6.936l30.155-7.087l-7.086,30.156c-1.233,5.245,1.793,10.552,6.936,12.163
			l19.555,6.123l-152.846,85L367.502,111.502z M208.025,85.187l18.157,9.499c4.774,2.494,10.666,0.886,13.505-3.697L256,64.655
			l16.312,26.333c2.839,4.582,8.734,6.192,13.505,3.697l18.157-9.498L256,253.37L208.025,85.187z M76.652,179.348l19.554-6.123
			c5.143-1.61,8.168-6.918,6.936-12.163l-7.086-30.156l30.155,7.087c5.244,1.232,10.555-1.794,12.164-6.936l6.123-19.555l85,152.845
			L76.652,179.348z M50.337,338.824l9.497-18.157c2.497-4.775,0.885-10.668-3.696-13.504L29.805,290.85l26.333-16.312
			c4.581-2.838,6.193-8.73,3.697-13.505l-9.497-18.157l168.183,47.975L50.337,338.824z M290.357,336.728
			c0,18.945-15.412,34.357-34.357,34.357s-34.357-15.412-34.357-34.357v-25.386L256,301.541l34.357,9.801V336.728z M455.862,307.163
			c-4.581,2.838-6.194,8.73-3.697,13.505l9.497,18.157L293.479,290.85l168.183-47.975l-9.497,18.157
			c-2.497,4.775-0.884,10.668,3.697,13.505l26.333,16.312L455.862,307.163z"/>
	</g>
</g>
</svg>